<?xml version="1.0" encoding="UTF-8" standalone="no"?>
<!-- Created with Inkscape (http://www.inkscape.org/) -->

<svg
   xmlns:dc="http://purl.org/dc/elements/1.1/"
   xmlns:cc="http://creativecommons.org/ns#"
   xmlns:rdf="http://www.w3.org/1999/02/22-rdf-syntax-ns#"
   xmlns:svg="http://www.w3.org/2000/svg"
   xmlns="http://www.w3.org/2000/svg"
   xmlns:sodipodi="http://sodipodi.sourceforge.net/DTD/sodipodi-0.dtd"
   xmlns:inkscape="http://www.inkscape.org/namespaces/inkscape"
   width="205.53244mm"
   height="158.74347mm"
   viewBox="0 0 205.53244 158.74347"
   version="1.1"
   id="svg8"
   inkscape:version="0.92.2 5c3e80d, 2017-08-06"
   sodipodi:docname="Empire Distribution logo.svg">
  <defs
     id="defs2" />
  <sodipodi:namedview
     id="base"
     pagecolor="#ffffff"
     bordercolor="#666666"
     borderopacity="1.0"
     inkscape:pageopacity="0.0"
     inkscape:pageshadow="2"
     inkscape:zoom="0.35"
     inkscape:cx="341.60119"
     inkscape:cy="171.23181"
     inkscape:document-units="mm"
     inkscape:current-layer="layer1"
     showgrid="false"
     fit-margin-top="0"
     fit-margin-left="0"
     fit-margin-right="0"
     fit-margin-bottom="0"
     inkscape:window-width="1280"
     inkscape:window-height="688"
     inkscape:window-x="0"
     inkscape:window-y="1"
     inkscape:window-maximized="1" />
  <metadata
     id="metadata5">
    <rdf:RDF>
      <cc:Work
         rdf:about="">
        <dc:format>image/svg+xml</dc:format>
        <dc:type
           rdf:resource="http://purl.org/dc/dcmitype/StillImage" />
        <dc:title></dc:title>
      </cc:Work>
    </rdf:RDF>
  </metadata>
  <g
     inkscape:label="Layer 1"
     inkscape:groupmode="layer"
     id="layer1"
     transform="translate(-2.2221846,-35.394938)">
    <g
       id="g75"
       transform="translate(9.4904763e-7,3.0238095)">
      <path
         style="fill:#cecece;stroke-width:0.17141987"
         d="m 2.2221837,178.51431 v -12.59936 l 10.4137583,-0.0261 c 5.727566,-0.0143 10.568035,-0.0327 10.756597,-0.0408 0.326622,-0.014 0.34284,0.0947 0.34284,2.2974 v 2.31211 l -8.185299,0.0445 -8.1852998,0.0445 v 2.39821 2.39822 h 7.2904668 7.290466 l -0.04798,2.1856 -0.04798,2.18561 -7.24249,0.0447 -7.2424898,0.0447 v 3.33919 3.3392 l 8.3567198,0.0445 c 7.836972,0.0417 8.355387,0.0631 8.335291,0.34447 -0.01178,0.16499 -0.03107,1.18708 -0.04285,2.27131 l -0.02143,1.97133 H 13.107346 2.2221837 Z m 38.0552143,0 v -12.59936 l 2.271313,-0.0131 c 1.249223,-0.007 2.425592,-0.0431 2.614153,-0.0798 0.261071,-0.0508 1.42716,1.03517 4.889204,4.55319 l 4.546364,4.61988 4.580895,-4.58294 4.580896,-4.58293 2.615002,0.0229 2.615003,0.0229 0.04396,12.61935 0.04396,12.61934 h -2.658113 -2.658114 v -8.92628 -8.92627 l -0.471405,0.3671 c -0.259272,0.20191 -1.435641,1.30769 -2.614153,2.4573 -1.178512,1.14961 -3.009218,2.93201 -4.068238,3.96088 l -1.925487,1.87067 -1.160071,-1.0996 c -0.638037,-0.60477 -2.664278,-2.55079 -4.502756,-4.32448 l -3.342688,-3.22488 -0.04438,8.92278 -0.04438,8.92278 h -2.655479 -2.655479 z m 43.71207,0.0286 c 0,-6.91394 0.03203,-12.60293 0.07118,-12.64222 0.03915,-0.0393 3.876815,-0.0274 8.528139,0.0265 7.382621,0.0855 8.587613,0.13628 9.485483,0.39998 3.29716,0.96837 5.29601,2.74977 6.26958,5.58752 0.55712,1.62392 0.55461,4.57257 -0.005,6.25683 -0.91271,2.74532 -2.65141,4.44101 -5.70349,5.56239 -1.82541,0.67068 -2.944014,0.77645 -8.231807,0.77833 l -5.099752,0.002 1.1e-5,3.29984 1e-5,3.29983 h -2.657008 -2.657009 v -12.57079 z m 16.00154,1.04067 c 2.117762,-0.69917 3.046532,-1.91671 3.163602,-4.1472 0.1236,-2.35492 -0.74175,-3.76746 -2.77378,-4.52774 -0.874875,-0.32733 -1.327512,-0.35628 -5.71376,-0.36544 -2.619988,-0.005 -4.898609,-0.008 -5.063601,-0.005 -0.278329,0.005 -0.299985,0.34645 -0.299985,4.7347 v 4.72967 l 4.928322,-0.0724 c 3.90892,-0.0574 5.100186,-0.12912 5.759202,-0.34669 z m 24.666722,-1.08098 0.044,-12.6111 2.5713,-0.0253 2.5713,-0.0253 0.044,12.63638 0.044,12.63639 h -2.65922 -2.65922 z m 21.5989,-0.004 0.044,-12.61505 7.66904,0.0138 c 8.13182,0.0146 9.04455,0.0878 11.21169,0.8986 2.49637,0.93401 4.36401,2.91047 4.93109,5.21842 0.59297,2.41325 0.42707,4.86874 -0.45981,6.80594 -0.59447,1.2985 -2.29103,3.04964 -3.62431,3.74092 l -1.09145,0.56588 2.63841,3.89449 c 1.45113,2.14196 2.63841,3.93893 2.63841,3.99327 0,0.0543 -1.42197,0.0988 -3.15994,0.0988 h -3.15993 l -2.32239,-3.51411 -2.32239,-3.51411 h -3.86006 -3.86006 v 3.51411 3.51411 h -2.65811 -2.65812 l 0.044,-12.61505 z m 14.9575,0.72547 c 2.66694,-0.71241 3.81994,-2.22584 3.6561,-4.79901 -0.10001,-1.57059 -0.7525,-2.58642 -2.10628,-3.27921 l -1.01006,-0.51689 -5.11249,-0.0522 -5.1125,-0.0523 v 4.46631 4.46631 l 4.41406,-0.002 c 3.1343,-0.001 4.66256,-0.0684 5.27117,-0.23099 z M 185.94369,178.9 c -0.0248,-6.71751 -0.0226,-12.40651 0.005,-12.64221 l 0.05,-0.42855 10.7494,0.043 10.74938,0.043 v 2.27113 2.27112 l -8.1853,0.0445 -8.18529,0.0445 v 2.39821 2.39822 h 7.29047 7.29047 l -0.048,2.1856 -0.048,2.18561 -7.24249,0.0447 -7.24249,0.0447 v 3.34082 3.34083 h 8.31386 8.31386 v 2.31417 2.31417 h -10.88291 -10.88292 z m -85.49791,-31.09015 c -4.114903,-0.48995 -5.355968,-0.67054 -7.113928,-1.0351 C 84.83838,145.01336 77.351507,141.62459 70.3317,136.36424 54.859472,124.76999 46.225906,106.27984 47.297767,87.033425 47.743315,79.033114 49.518183,72.120342 52.946068,65.034353 55.90555,58.916632 59.329343,54.109211 64.182848,49.25655 73.814827,39.626248 85.817143,33.950092 99.535829,32.537358 c 3.011491,-0.310119 10.880721,-0.116512 13.766441,0.338696 9.83691,1.551727 18.37575,5.072376 25.93346,10.692627 12.48619,9.285288 20.53086,22.603364 22.90908,37.926317 0.1906,1.228036 0.42855,3.677613 0.52878,5.443501 0.77015,13.569171 -3.20567,26.776211 -11.34837,37.697481 -9.33039,12.51424 -22.92784,20.57495 -38.45051,22.79386 -1.81588,0.25958 -3.54949,0.35639 -7.11492,0.39733 -2.59272,0.0298 -4.98403,0.022 -5.31401,-0.0173 z m 10.43977,-6.34362 c 11.4568,-1.27639 21.85571,-6.24559 30.24525,-14.4529 5.79266,-5.66684 10.11144,-12.48431 12.69998,-20.04772 7.7985,-22.7863 -0.964,-47.678274 -21.33762,-60.61458 -2.17405,-1.380427 -7.02197,-3.796213 -9.24854,-4.608686 -6.39436,-2.333292 -11.55002,-3.249202 -18.25622,-3.243244 -8.589572,0.0076 -15.376202,1.597883 -23.034925,5.397577 -10.069252,4.99562 -18.12804,13.028058 -23.154639,23.078929 -2.666088,5.330946 -4.159774,10.19597 -5.088051,16.572093 -0.470461,3.231491 -0.427872,10.319794 0.08239,13.71359 1.917109,12.750711 8.01876,23.889881 17.612097,32.152651 3.101003,2.6709 7.605501,5.62812 11.073399,7.26971 9.112335,4.31351 18.472429,5.88937 28.406869,4.78258 z m -10.3537,-5.22243 C 80.792014,134.12422 64.419655,119.50514 60.18576,100.21828 L 59.856493,98.718358 H 75.437088 91.017683 V 110.357 121.99565 l -1.87424,-0.99417 c -3.354029,-1.77911 -5.738546,-3.53357 -8.412434,-6.18963 -1.330288,-1.32142 -3.769756,-4.23631 -3.769756,-4.50443 0,-0.0572 1.812765,-0.10393 4.028367,-0.10393 h 4.028367 v -2.74272 -2.74272 h -8.562246 -8.562249 l 0.260785,0.64283 c 1.319527,3.2526 4.043723,7.77858 6.294099,10.45702 1.309295,1.55834 3.990617,4.21278 5.666855,5.61004 4.179843,3.48418 10.342021,6.5235 15.830774,7.80808 l 0.557114,0.13039 V 111.30043 93.234446 l -18.641912,-0.04362 -18.641912,-0.04362 -0.04681,-3.042703 -0.04681,-3.042702 H 77.814398 96.503119 V 68.97701 c 0,-11.198795 -0.06148,-18.084796 -0.161463,-18.084796 -0.0888,0 -1.06345,0.273404 -2.165877,0.607565 -9.432917,2.859246 -16.91869,8.375722 -22.320646,16.448712 -1.09043,1.629601 -3.354681,5.878558 -3.76814,7.07107 l -0.193159,0.557114 h 8.562076 8.562077 V 72.833957 70.091239 H 80.98962 c -2.215602,0 -4.028367,-0.05989 -4.028367,-0.133102 0,-0.181405 1.660952,-2.252279 3.016767,-3.761303 1.382157,-1.538343 3.927996,-3.681585 6.068487,-5.108822 1.744742,-1.163361 4.405273,-2.645759 4.756901,-2.650459 0.169332,-0.0023 0.214275,2.424057 0.214275,11.567977 V 81.576371 H 75.406922 c -14.786552,0 -15.606126,-0.01584 -15.522977,-0.299985 0.04828,-0.164992 0.247924,-0.994235 0.44365,-1.842764 2.606952,-11.301886 9.779946,-21.533553 19.689509,-28.085404 6.173556,-4.081735 14.058559,-6.814787 21.328936,-7.392908 l 1.32882,-0.105664 -0.0432,46.247686 c -0.043,46.110378 -0.0442,46.247758 -0.386,46.270688 -0.18857,0.0127 -0.95979,-0.0433 -1.71384,-0.12422 z m 7.62782,-46.102087 v -46.29201 l 1.32851,0.108371 c 7.28646,0.594384 15.14064,3.331395 21.29892,7.422207 3.07086,2.03991 4.80651,3.452286 7.29378,5.935288 5.16467,5.155809 8.94923,11.242114 11.19515,18.003977 0.83962,2.527875 1.56719,5.279744 1.56719,5.92752 0,0.322381 -0.32799,0.329305 -15.59921,0.329305 H 119.6448 V 70.00553 c 0,-10.962771 0.016,-11.570842 0.30393,-11.570842 0.41995,0 3.76923,1.883918 5.43521,3.057215 1.75032,1.2327 3.45479,2.682144 4.96047,4.218282 1.23239,1.257323 3.52824,4.023246 3.52824,4.250645 0,0.07173 -1.81276,0.130409 -4.02836,0.130409 h -4.02837 v 2.742718 2.742718 h 8.55817 8.55818 l -0.6862,-1.585633 c -2.96416,-6.849501 -8.25958,-13.140077 -14.67136,-17.428516 -2.11579,-1.415126 -5.38352,-3.104088 -7.66005,-3.959192 -1.79907,-0.675765 -5.16337,-1.71112 -5.56014,-1.71112 -0.14469,0 -0.19515,4.676104 -0.19515,18.084796 v 18.084797 h 18.77443 18.77443 l -0.0468,3.042702 -0.0468,3.042703 -18.72762,0.04361 -18.72762,0.04361 v 18.084038 c 0,9.94622 0.0579,18.08287 0.12856,18.08144 0.0707,-0.001 1.027,-0.26273 2.12508,-0.58069 6.8254,-1.97634 12.35146,-5.24856 17.37823,-10.29038 2.41854,-2.42579 3.48946,-3.73154 5.36639,-6.54319 1.23956,-1.85686 3.62886,-6.54289 3.62886,-7.11712 0,-0.0843 -3.72965,-0.15049 -8.48529,-0.15049 h -8.48528 v 2.74272 2.74272 h 4.02837 c 2.2156,0 4.02836,0.0427 4.02836,0.0949 0,0.24265 -2.09791,2.72971 -3.58112,4.2454 -1.70767,1.74508 -3.76473,3.46859 -5.65975,4.74204 -1.37402,0.92335 -4.76994,2.73415 -4.8943,2.60979 -0.051,-0.051 -0.0927,-5.2867 -0.0927,-11.63495 V 98.718358 h 15.66054 15.66053 l -0.41222,1.757052 c -3.76506,16.04848 -15.43867,28.77074 -30.99572,33.78009 -3.17294,1.02168 -6.54847,1.69605 -10.41259,2.08023 l -0.98567,0.098 z"
         id="path89"
         inkscape:connector-curvature="0" />
      <path
         style="fill:#b0b0b0;stroke-width:0.17141987"
         d="M 2.2221837,178.51431 V 165.91495 H 12.926396 23.630609 l 0.05239,2.22712 0.05238,2.22712 -8.142444,0.0442 -8.1424449,0.0442 -0.04755,2.44087 -0.04755,2.44087 7.2471859,0.0447 7.247185,0.0447 0.05685,2.09989 0.05685,2.0999 H 14.66412 7.3647802 v 3.5141 3.51411 h 8.3138648 8.313864 v 2.22846 2.22846 H 13.107346 2.2221837 Z m 38.0552143,0 v -12.59936 h 2.612984 2.612984 l 4.585691,4.58333 4.585691,4.58333 4.47662,-4.58333 4.476618,-4.58333 h 2.638267 2.638265 v 12.59936 12.59936 H 66.33322 63.761922 v -9.03362 -9.03361 l -2.185604,2.12941 c -1.202082,1.17117 -3.248479,3.16902 -4.547546,4.43966 l -2.361944,2.31025 -1.495004,-1.45751 c -0.822253,-0.80163 -2.844936,-2.76316 -4.494852,-4.35895 l -2.999848,-2.90144 -0.04438,8.9529 -0.04438,8.95291 h -2.655479 -2.655479 z m 43.71207,-0.0102 v -12.60962 l 8.442429,0.0623 c 8.188843,0.0605 8.481013,0.074 9.726863,0.45095 2.75463,0.83346 4.71029,2.33101 5.65628,4.33132 0.72193,1.5265 0.91043,2.66161 0.82052,4.9409 -0.0641,1.62495 -0.1577,2.16961 -0.52528,3.05657 -0.9221,2.22502 -2.55591,3.81722 -4.86599,4.74203 -2.06126,0.8252 -3.21718,0.94976 -8.813289,0.94976 h -5.127517 v 3.34269 3.34269 h -2.657008 -2.657008 v -12.60962 z m 15.175139,1.28057 c 2.724363,-0.50363 4.061983,-2.05658 4.061983,-4.71588 0,-1.51648 -0.42693,-2.53046 -1.42522,-3.38496 -1.28099,-1.09647 -1.883057,-1.19887 -7.483854,-1.27285 l -5.014032,-0.0662 v 4.81334 4.81333 h 4.425434 c 2.460083,0 4.874093,-0.0829 5.435689,-0.18675 z m 25.451373,-1.27479 v -12.60382 l 2.61415,0.0473 2.61416,0.0473 0.044,12.5565 0.044,12.55651 h -2.65812 -2.65812 z m 21.59891,-0.006 v -12.60988 l 8.1853,0.06 8.18529,0.06 1.54278,0.47523 c 1.84023,0.56684 2.78686,1.09274 3.95726,2.19848 1.60797,1.51911 2.30097,3.36943 2.29753,6.13441 -0.003,2.78282 -0.63819,4.41992 -2.39652,6.18108 -0.67192,0.673 -1.51242,1.30807 -2.11352,1.59694 l -0.99797,0.47959 0.29744,0.4601 c 0.16359,0.25305 1.36478,2.02953 2.66932,3.94772 1.30453,1.9182 2.37187,3.51883 2.37187,3.55697 0,0.0381 -1.4191,0.0693 -3.15355,0.0693 h -3.15355 l -2.28903,-3.51121 -2.28903,-3.51122 -3.8141,-0.003 c -2.09775,-0.002 -3.86438,-0.0222 -3.92584,-0.0458 -0.0615,-0.0236 -0.0948,1.55778 -0.0741,3.51411 l 0.0376,3.55696 h -2.66858 -2.66857 v -12.60988 z m 15.47031,0.61137 c 1.37958,-0.42611 2.55489,-1.40886 2.96304,-2.47758 0.20964,-0.54893 0.27176,-1.13162 0.22661,-2.12575 -0.0541,-1.19226 -0.12942,-1.46562 -0.58159,-2.11192 -0.66621,-0.95224 -1.90073,-1.61942 -3.4321,-1.85484 -0.67135,-0.10321 -2.96886,-0.16212 -5.27249,-0.1352 l -4.08267,0.0477 0.009,4.45691 c 0.005,2.45131 0.0104,4.4762 0.0115,4.49977 0.001,0.0236 2.03802,0.0429 4.52654,0.0429 4.03644,0 4.64401,-0.0369 5.63173,-0.34197 z m 24.2991,-0.60083 v -12.59936 h 10.71374 10.71374 v 2.22678 2.22678 l -8.09959,0.0445 -8.09959,0.0445 -0.0476,2.44274 -0.0476,2.44273 h 7.20434 7.20435 v 2.14275 2.14275 h -7.19964 -7.19963 v 3.5141 3.51411 h 8.31386 8.31386 v 2.22846 2.22846 H 196.86946 185.9843 Z m -85.76299,-30.77356 c -12.237712,-1.09411 -23.62862,-5.86134 -32.773861,-13.71625 -2.097547,-1.80159 -5.872648,-5.7018 -7.571974,-7.82289 -7.058024,-8.80983 -11.416858,-19.66445 -12.410825,-30.906171 -0.299718,-3.3898 -0.117553,-10.39173 0.350229,-13.461938 1.364262,-8.954064 4.504896,-17.027877 9.401975,-24.170202 8.510949,-12.41311 21.179823,-20.95442 35.686448,-24.059677 4.980466,-1.066108 11.777948,-1.496952 16.867058,-1.069083 10.77263,0.905712 21.01775,4.773134 29.59874,11.173212 11.24113,8.384121 18.94122,20.230427 22.00695,33.85687 1.01934,4.530744 1.19598,6.389151 1.19598,12.582743 0,5.116314 -0.0423,6.013631 -0.38757,8.228154 -2.00627,12.866612 -7.68133,24.051772 -16.6695,32.854442 -4.76597,4.66761 -8.826,7.58504 -14.64215,10.52146 -5.91479,2.98621 -11.9981,4.84644 -18.77048,5.73987 -2.49835,0.32959 -9.37083,0.47389 -11.88102,0.24946 z m 10.8525,-6.2446 c 22.27758,-2.64603 40.42599,-19.47886 44.64258,-41.40643 0.76844,-3.996153 0.86989,-5.191552 0.85831,-10.113776 -0.009,-3.928297 -0.0732,-5.125101 -0.38361,-7.18014 -1.71025,-11.321984 -6.70705,-21.276926 -14.68348,-29.253353 -8.18123,-8.181226 -18.19977,-13.109933 -30.00525,-14.761342 -3.07584,-0.430263 -9.86946,-0.429046 -13.027912,0.0023 -15.200108,2.076025 -28.259884,10.224444 -36.648436,22.866154 -4.277639,6.446484 -6.93438,13.54717 -8.129101,21.726681 -0.470556,3.221604 -0.419401,10.816078 0.09526,14.14214 1.022331,6.606946 3.132002,12.763136 6.213024,18.130116 7.01713,12.22347 18.274474,20.88958 31.869588,24.53381 2.856741,0.76577 5.844423,1.23218 10.456617,1.6324 1.43869,0.12484 6.58929,-0.0629 8.74241,-0.3186 z m -11.142293,-5.35633 c -0.329983,-0.0355 -1.656183,-0.25537 -2.947112,-0.4885 -17.817213,-3.21768 -32.414146,-17.04908 -36.578573,-34.66024 -0.228331,-0.9656 -0.415148,-1.871985 -0.415148,-2.014182 0,-0.228537 1.800386,-0.25854 15.5135,-0.25854 H 91.017683 V 110.2892 c 0,6.36396 -0.05144,11.57084 -0.114306,11.57084 -0.06287,0 -0.853542,-0.3933 -1.757054,-0.874 -3.344774,-1.77955 -6.22905,-3.95859 -8.85268,-6.68812 -1.365743,-1.42087 -3.33239,-3.77256 -3.33239,-3.98482 0,-0.0603 1.812765,-0.10961 4.028367,-0.10961 h 4.028367 v -2.74272 -2.74272 h -8.568493 -8.568493 l 0.35185,0.89265 c 0.193517,0.49096 0.816635,1.8043 1.384707,2.91853 5.307784,10.41088 15.178295,18.13303 26.587755,20.80081 l 0.473584,0.11074 -0.04503,-18.14679 -0.04503,-18.146778 -18.684767,-0.04059 -18.684767,-0.04059 V 90.10677 87.147517 l 18.684767,-0.08571 18.684767,-0.08571 0.04364,-18.041942 c 0.03929,-16.243873 0.01701,-18.041941 -0.223559,-18.041941 -0.420371,0 -3.165753,0.802209 -4.91403,1.435897 -9.979898,3.617343 -18.624935,11.726907 -22.918792,21.499201 -0.38505,0.876327 -0.700091,1.628432 -0.700091,1.671343 0,0.04291 3.856947,0.07802 8.570994,0.07802 h 8.570994 v -2.742718 -2.742718 l -3.771237,-0.02143 c -2.074181,-0.01178 -3.848377,-0.04071 -3.942657,-0.06428 -0.09428,-0.02357 -0.214911,-0.0525 -0.268065,-0.06428 -0.209386,-0.04642 2.079114,-2.809342 3.573215,-4.313959 1.711341,-1.72339 3.431296,-3.154105 5.340615,-4.4425 1.359274,-0.917229 4.092528,-2.464963 4.68213,-2.651305 l 0.385695,-0.121899 V 69.993978 81.576371 H 75.484721 59.951757 l 0.118692,-0.791494 c 0.06528,-0.43532 0.378153,-1.738194 0.695273,-2.895273 3.186503,-11.626616 10.71948,-21.482657 21.166707,-27.694217 5.343386,-3.176992 12.469914,-5.545936 18.256221,-6.068586 0.65996,-0.05961 1.48921,-0.149909 1.84276,-0.200661 l 0.64283,-0.09228 v 46.212723 46.212727 l -1.07138,-0.0274 c -0.58925,-0.0151 -1.34136,-0.0565 -1.671343,-0.0921 z m 8.228153,-46.067466 v -46.23849 l 0.64283,0.09368 c 0.35355,0.05152 1.14422,0.140174 1.75705,0.197001 5.43246,0.503745 11.96395,2.555559 17.04012,5.353008 10.33106,5.6934 18.15977,15.107414 21.78598,26.197616 0.50233,1.536301 1.45757,5.228663 1.45757,5.634047 0,0.23996 -1.57922,0.267156 -15.5135,0.267156 h -15.5135 V 70.00553 c 0,-6.363963 0.0512,-11.570842 0.11376,-11.570842 0.0626,0 0.91522,0.424189 1.89478,0.942642 3.0807,1.630527 5.12933,3.126523 7.73972,5.651882 1.68021,1.625486 4.17683,4.536233 4.14938,4.837671 -0.017,0.186421 0.14036,0.178685 -4.1267,0.202929 l -3.77124,0.02143 v 2.742718 2.742718 h 8.56208 8.56207 l -0.18275,-0.524246 c -0.10051,-0.288335 -0.70584,-1.580413 -1.34516,-2.871283 C 136.88825,63.04686 128.8129,55.815 119.2085,52.2967 c -1.72146,-0.630606 -4.40123,-1.404486 -4.86342,-1.404486 -0.13216,0 -0.18571,5.214568 -0.18571,18.084796 v 18.084797 h 18.66477 18.66478 l 0.10336,0.385694 c 0.14048,0.524192 0.11297,5.121409 -0.0326,5.442581 -0.10253,0.226264 -2.34915,0.25713 -18.71558,0.25713 h -18.59905 l -0.0436,18.127648 c -0.024,9.97021 0.002,18.12765 0.0571,18.12765 0.0554,0 0.71017,-0.15558 1.45496,-0.34575 5.13789,-1.31182 10.64537,-4.11676 14.98784,-7.63326 1.7802,-1.44159 4.80632,-4.4581 6.09677,-6.07741 2.10927,-2.64682 4.47915,-6.59886 5.62792,-9.38524 l 0.51238,-1.2428 h -8.56127 -8.56127 v 2.73962 2.73961 l 4.05364,0.046 4.05364,0.046 -1.0843,1.37136 c -3.01772,3.81664 -6.8704,7.03439 -11.17848,9.33625 -0.88857,0.47478 -1.66702,0.86323 -1.72989,0.86323 -0.0629,0 -0.11431,-5.20688 -0.11431,-11.57084 V 98.718358 h 15.5135 c 12.45932,0 15.5135,0.04303 15.5135,0.218576 0,0.526634 -1.0672,4.497506 -1.70094,6.328896 -3.79987,10.98094 -11.7039,20.24178 -21.955,25.72383 -5.37989,2.87704 -11.97926,4.85928 -17.34943,5.21121 l -1.67818,0.10998 z"
         id="path87"
         inkscape:connector-curvature="0" />
      <path
         style="fill:#8c8c8c;stroke-width:0.17141987"
         d="M 2.2221837,178.51431 V 165.91495 H 12.935926 23.649669 v 2.22846 2.22845 H 15.507225 7.3647802 v 2.48559 2.48559 h 7.1996348 7.199635 v 2.14275 2.14275 H 14.564415 7.3647802 v 3.5141 3.51411 h 8.3138648 8.313864 v 2.22846 2.22846 H 13.107346 2.2221837 Z m 38.0574173,0 0.0064,-12.59936 h 2.608692 2.60869 l 4.586651,4.58429 4.586658,4.58429 4.586651,-4.58429 4.586651,-4.58429 h 2.527274 2.527274 v 12.59936 12.59936 H 66.33322 63.761922 v -9.01973 -9.01972 l -3.435289,3.32001 c -1.889409,1.82601 -3.954314,3.79373 -4.588679,4.37271 l -1.153392,1.05269 -4.496573,-4.37005 -4.496575,-4.37006 v 9.01708 9.01707 h -2.659099 -2.6591 l 0.0064,-12.59936 z m 43.840664,0.2872 c -0.0248,-6.77168 -0.01913,-12.44664 0.01258,-12.61103 0.0541,-0.28039 0.568339,-0.29477 8.313864,-0.23246 9.156931,0.0737 9.221111,0.0806 11.732681,1.26963 2.20983,1.04617 3.79821,3.07898 4.30511,5.50967 0.26894,1.28969 0.23451,3.73198 -0.069,4.89742 -0.93045,3.57222 -3.59225,5.81126 -7.77786,6.54255 -1.038389,0.18142 -2.808548,0.251 -6.385385,0.251 h -4.948723 v 3.34269 3.34269 H 86.734466 84.1654 Z m 15.126673,0.99824 c 2.621042,-0.49707 4.045012,-2.19836 4.017182,-4.79955 -0.006,-0.51854 -0.11218,-1.24487 -0.23696,-1.61407 -0.33964,-1.00495 -1.42414,-2.08017 -2.55452,-2.53266 -0.917441,-0.36726 -1.244368,-0.3913 -6.069414,-0.44634 l -5.099742,-0.0582 v 4.81121 4.81122 h 4.51923 c 2.485576,0 4.926477,-0.0772 5.424224,-0.17163 z m 25.369042,-1.28544 v -12.59936 h 2.5713 2.5713 v 12.59936 12.59936 h -2.5713 -2.5713 z m 21.59891,-0.0119 v -12.6113 l 8.09959,0.0652 c 7.75905,0.0625 8.15627,0.0813 9.44796,0.44805 4.50206,1.2782 6.62265,3.94927 6.62265,8.34185 0,2.6994 -0.73043,4.61922 -2.37697,6.2475 -0.53114,0.52526 -1.44784,1.20888 -2.03709,1.51917 -0.58926,0.31029 -1.07138,0.59549 -1.07138,0.63377 0,0.0383 1.06796,1.6344 2.37325,3.54691 1.30529,1.91252 2.50981,3.68944 2.67672,3.94871 l 0.30348,0.4714 -3.14813,-0.004 -3.14813,-0.004 -2.38487,-3.59892 -2.38488,-3.59893 -3.87195,0.046 -3.87195,0.046 -0.0463,3.55697 -0.0463,3.55696 h -2.56782 -2.56782 v -12.6113 z m 16.11346,0.42311 c 1.82575,-0.86354 2.62649,-2.14242 2.62772,-4.19676 8.5e-4,-1.47203 -0.45252,-2.4265 -1.54966,-3.26222 -1.20497,-0.91787 -2.42956,-1.09465 -7.583,-1.09465 h -4.46593 v 4.55424 4.55424 l 5.01403,-0.0545 c 4.99166,-0.0542 5.01824,-0.0565 5.95684,-0.50039 z m 23.65595,-0.41118 v -12.59936 h 10.71374 10.71374 v 2.22846 2.22846 h -8.14244 -8.14244 v 2.48559 2.48559 h 7.19963 7.19964 v 2.14275 2.14274 h -7.19964 -7.19963 v 3.51411 3.51411 h 8.31386 8.31386 v 2.22846 2.22845 H 196.86946 185.9843 Z M 100.6172,147.7493 c -13.55091,-1.07561 -26.092737,-6.75068 -35.805271,-16.20158 -4.741721,-4.61398 -8.405161,-9.57487 -11.316623,-15.32454 -3.351312,-6.6183 -5.340606,-13.54727 -6.009889,-20.93322 -0.229185,-2.529204 -0.229373,-7.752749 -3.43e-4,-10.285192 1.820652,-20.134069 13.864097,-37.712873 31.94319,-46.624823 7.861896,-3.875462 15.20499,-5.699056 23.931646,-5.94322 10.08014,-0.282032 18.98559,1.731845 28.02716,6.33805 15.99818,8.150238 27.49445,23.831193 30.5007,41.603068 1.03665,6.128291 1.06763,12.858247 0.0875,19.004589 -1.37426,8.617648 -4.85388,17.092598 -9.93522,24.198158 -9.67426,13.52815 -24.27711,22.09846 -40.8805,23.99249 -2.14083,0.24422 -8.37324,0.34839 -10.54232,0.17622 z m 10.77528,-6.25898 c 13.94041,-1.76924 26.49345,-9.04434 34.90686,-20.23025 5.60663,-7.4542 9.03777,-16.09573 10.10731,-25.45585 0.5242,-4.587563 0.2763,-10.865443 -0.60921,-15.427788 C 151.85231,60.050375 136.2848,44.03343 116.1307,39.564495 c -7.43197,-1.64795 -15.97842,-1.55057 -23.342793,0.265972 -15.003695,3.700905 -27.4144,13.663597 -34.172963,27.432345 -3.654919,7.445908 -5.309635,14.577741 -5.309635,22.884552 0,18.157046 9.151876,34.482566 24.770173,44.186136 6.070749,3.77172 14.208886,6.53978 21.256066,7.2299 1.037092,0.10157 2.155602,0.21582 2.485592,0.25391 1.25723,0.14511 7.54828,-0.0697 9.57534,-0.32699 z m -11.28954,-5.35079 c -1.244359,-0.13462 -4.603211,-0.76966 -6.174756,-1.16742 -15.050179,-3.80922 -27.403046,-15.28462 -32.382917,-30.08264 -0.527044,-1.56614 -1.554583,-5.500617 -1.554583,-5.952536 0,-0.175545 3.054187,-0.218576 15.5135,-0.218576 H 91.017683 V 110.2892 c 0,6.36396 -0.05092,11.57084 -0.113154,11.57084 -0.06223,0 -0.852908,-0.39779 -1.757054,-0.88399 -4.308633,-2.31691 -7.932248,-5.32708 -11.030359,-9.16303 -0.541443,-0.67039 -0.984443,-1.30679 -0.984443,-1.41421 0,-0.14049 1.106901,-0.19532 3.942657,-0.19532 h 3.942657 v -2.74272 -2.74272 h -8.570994 c -4.714047,0 -8.570994,0.0351 -8.570994,0.078 0,0.0429 0.315041,0.79502 0.700091,1.67135 4.733882,10.77373 14.485568,19.23395 25.856865,22.4325 0.98273,0.27643 1.889466,0.50259 2.014966,0.50259 0.188801,0 0.220651,-3.12865 0.184547,-18.12765 l -0.04364,-18.127648 -18.731666,-0.04361 -18.731667,-0.04361 0.0469,-2.956235 0.0469,-2.956233 18.727622,-0.04361 18.727622,-0.04361 V 68.954343 50.848396 l -0.655501,0.104819 c -0.953934,0.15254 -3.779481,1.044734 -5.581801,1.76251 -8.615301,3.431046 -16.027825,10.037344 -20.457705,18.232614 -0.742456,1.373541 -2.103533,4.322647 -2.103533,4.557816 0,0.03879 3.856947,0.07052 8.570994,0.07052 h 8.570994 V 72.748247 69.91982 h -4.039741 -4.039741 l 0.825619,-1.070401 c 2.235772,-2.898641 6.099143,-6.375983 9.265964,-8.340108 1.249783,-0.775138 3.69113,-2.074623 3.897607,-2.074623 0.04949,0 0.08999,5.206879 0.08999,11.570842 V 81.576371 H 75.504184 c -13.2924,0 -15.5135,-0.03488 -15.5135,-0.243595 0,-0.967565 1.445091,-5.911155 2.484341,-8.498819 6.311596,-15.715451 21.007229,-26.870891 37.799335,-28.693435 1.17851,-0.127911 2.2006,-0.199334 2.27131,-0.158717 0.0707,0.04062 0.12857,20.819671 0.12857,46.175677 v 46.101828 l -0.98567,-0.0274 c -0.54211,-0.0151 -1.25565,-0.0566 -1.58563,-0.0923 z m 8.05673,-45.939 c 0,-25.359384 0.0356,-46.143553 0.0791,-46.187042 0.14992,-0.149917 3.26946,0.193714 5.58486,0.615197 9.03699,1.645044 17.08179,5.819629 23.7975,12.348934 5.25731,5.111396 8.88641,10.745753 11.37241,17.656247 0.64222,1.785213 1.84971,6.154251 1.84971,6.692749 0,0.216888 -2.04159,0.249756 -15.5135,0.249756 h -15.5135 V 70.00553 c 0,-6.363963 0.0408,-11.570842 0.0906,-11.570842 0.17998,0 2.24888,1.092265 3.50782,1.85194 3.27868,1.978415 6.58932,4.859971 9.01906,7.850108 0.69714,0.857937 1.26753,1.610107 1.26753,1.671486 0,0.06138 -1.77419,0.111598 -3.94265,0.111598 h -3.94266 v 2.828427 2.828428 h 8.57099 c 4.71405,0 8.571,-0.02897 8.571,-0.06438 0,-0.141971 -0.93578,-2.176004 -1.74481,-3.792567 -1.75553,-3.507813 -5.24816,-8.197528 -8.04281,-10.799452 -5.10988,-4.757496 -10.92602,-8.003144 -17.511,-9.771873 l -1.49992,-0.40288 v 18.158142 18.158142 h 18.66147 18.66146 l 0.10901,0.795314 c 0.13856,1.010873 0.13795,3.720804 -0.001,4.561557 l -0.10624,0.642824 h -18.66233 -18.66234 v 18.170508 c 0,14.9815 0.0399,18.1705 0.2274,18.1705 0.46551,0 3.93976,-1.0485 5.47184,-1.65135 9.29535,-3.65763 16.92754,-10.53236 21.37301,-19.25187 0.55967,-1.09776 1.17592,-2.39763 1.36944,-2.88859 l 0.35185,-0.89265 h -8.5685 -8.56849 v 2.74272 2.74272 h 3.94266 c 2.32989,0 3.94265,0.0655 3.94265,0.16019 0,0.32934 -2.16482,2.8987 -3.83816,4.55539 -2.69974,2.67287 -6.14442,5.11718 -9.21881,6.54157 l -0.82804,0.38363 V 110.28131 98.718358 h 15.5135 c 8.53243,0 15.5135,0.04831 15.5135,0.107345 0,0.05904 -0.16152,0.811145 -0.35894,1.671347 -3.27096,14.25244 -13.21923,26.24692 -26.58412,32.05205 -4.58594,1.99194 -9.68753,3.30246 -14.17424,3.64116 l -1.56625,0.11824 z"
         id="path85"
         inkscape:connector-curvature="0" />
      <path
         style="fill:#737373;stroke-width:0.17141987"
         d="M 2.2221837,178.51431 V 165.91495 H 12.935926 23.649669 v 2.22846 2.22845 H 15.507225 7.3647802 v 2.48559 2.48559 h 7.1996348 7.199635 v 2.14275 2.14275 H 14.564415 7.3647802 v 3.5141 3.51411 h 8.3138648 8.313864 v 2.22846 2.22846 H 13.107346 2.2221837 Z m 38.2266343,0 v -12.59936 h 2.527274 2.527274 l 4.586651,4.58429 4.586651,4.58429 4.586651,-4.58429 4.586651,-4.58429 h 2.527274 2.527274 v 12.59936 12.59936 h -2.569783 -2.569783 l -0.04437,-8.9923 -0.04437,-8.99229 -4.450782,4.27825 c -2.447931,2.35303 -4.515724,4.27825 -4.595095,4.27825 -0.07937,0 -2.114158,-1.90919 -4.521746,-4.24265 -2.407591,-2.33345 -4.428162,-4.26195 -4.490161,-4.28555 -0.062,-0.0236 -0.09145,4.00691 -0.06544,8.95669 l 0.04728,8.9996 h -2.575726 -2.575724 z m 43.71207,-0.0131 v -12.61246 l 8.185299,0.0673 c 7.690693,0.0632 8.264473,0.0892 9.495553,0.42997 4.44679,1.23094 6.57966,3.77774 6.78346,8.09995 0.24333,5.16045 -2.44952,8.52564 -7.68708,9.60635 -1.37225,0.28315 -2.337882,0.33183 -6.620604,0.33375 l -5.014032,0.002 v 3.34269 3.34269 h -2.571298 -2.571298 v -12.61246 z m 16.409522,0.97935 c 1.05712,-0.47795 2.13585,-1.58267 2.4641,-2.52345 0.12881,-0.36919 0.23263,-1.2498 0.2307,-1.95691 -0.006,-2.06464 -0.86624,-3.3191 -2.90514,-4.23471 -0.610998,-0.27438 -1.250491,-0.30792 -5.871244,-0.30792 h -5.185561 l -0.04274,4.76788 -0.04275,4.76787 5.228307,-0.0538 c 5.070694,-0.0522 5.255317,-0.0661 6.124328,-0.45894 z m 24.04557,-0.96625 v -12.59936 h 2.5713 2.5713 v 12.59936 12.59936 h -2.5713 -2.5713 z m 21.59891,-0.012 v -12.6114 l 8.01388,0.0705 c 6.94927,0.0612 8.17328,0.1109 9.21381,0.37439 4.59232,1.16292 6.94251,4.00897 6.94251,8.40728 0,3.47482 -1.6962,6.43924 -4.42492,7.73336 -0.57382,0.27213 -1.04718,0.55929 -1.05191,0.63812 -0.005,0.0788 1.13245,1.81446 2.52707,3.85695 1.39463,2.04249 2.59483,3.81004 2.66713,3.92789 0.10331,0.16842 -0.54018,0.214 -3.00709,0.21298 l -3.13853,-0.001 -2.35491,-3.59852 -2.35492,-3.59852 h -3.94476 -3.94477 v 3.59982 3.59982 h -2.5713 -2.57129 v -12.6114 z m 15.43471,0.67979 c 1.33412,-0.39619 2.23863,-1.08538 2.82285,-2.15087 0.4312,-0.78641 0.5022,-1.09955 0.49935,-2.2024 -0.005,-1.98297 -0.85638,-3.26952 -2.63462,-3.98187 -0.89347,-0.35793 -1.25808,-0.3848 -5.96567,-0.43975 l -5.01403,-0.0585 v 4.55424 4.55423 h 4.68294 c 3.79923,0 4.85772,-0.0519 5.60918,-0.27506 z m 24.3347,-0.66775 v -12.59936 h 10.71374 10.71374 v 2.22846 2.22845 h -8.14244 -8.14244 v 2.48559 2.48559 h 7.19963 7.19964 v 2.14275 2.14275 h -7.19964 -7.19963 v 3.5141 3.51411 h 8.31386 8.31386 v 2.22846 2.22846 H 196.86946 185.9843 Z M 100.99461,147.7314 c -7.596805,-0.48369 -16.129733,-2.89972 -22.812354,-6.45911 -5.413467,-2.8834 -9.57308,-5.97489 -13.99837,-10.40382 -3.531781,-3.53468 -5.867784,-6.46987 -8.347398,-10.48851 -5.939198,-9.62547 -8.796641,-20.39057 -8.476933,-31.935907 0.172624,-6.233814 0.996003,-10.921396 2.931846,-16.691302 2.38244,-7.101013 5.958149,-13.410115 10.899819,-19.232008 1.454787,-1.713916 5.480167,-5.651901 7.239646,-7.082466 12.960591,-10.537755 29.536046,-14.967913 45.933914,-12.276857 10.3765,1.702887 19.76155,6.049174 27.99316,12.963839 3.47802,2.921585 7.92868,7.903463 10.53749,11.79521 4.34562,6.482684 7.40587,13.960446 8.83928,21.598903 0.82429,4.392554 1.14342,10.615104 0.77803,15.170659 -1.12629,14.042399 -7.2611,27.077359 -17.34631,36.856649 -11.84113,11.48196 -27.56236,17.24227 -44.17182,16.18472 z m 8.10787,-5.99516 c 9.01182,-0.77292 17.1966,-3.60258 24.48917,-8.46645 12.19282,-8.13215 20.30854,-20.85682 22.595,-35.426803 0.33815,-2.154794 0.38794,-3.129448 0.39316,-7.695583 0.005,-4.638628 -0.0382,-5.502632 -0.38546,-7.660593 -1.58691,-9.860497 -5.37942,-18.240111 -11.62272,-25.680571 -8.25849,-9.842064 -19.73745,-16.178264 -32.64072,-18.017139 -2.50756,-0.357359 -8.85656,-0.501452 -11.39942,-0.258715 -6.558958,0.626105 -12.224655,2.184986 -17.913381,4.928753 -5.251184,2.532733 -9.260186,5.321831 -13.499055,9.391412 -8.903407,8.547833 -14.382161,19.824528 -15.648044,32.207718 -0.308998,3.022707 -0.129403,9.843757 0.338935,12.87276 1.618699,10.469031 6.460997,20.280091 13.83918,28.039781 10.580597,11.12769 26.212123,17.07263 41.453355,15.76543 z m -9.723759,-5.73952 C 82.039087,133.63247 67.724709,122.06568 61.836894,105.6609 c -0.615401,-1.71464 -1.84621,-6.19829 -1.84621,-6.725454 0,-0.17352 3.111261,-0.217048 15.5135,-0.217048 h 15.513499 v 11.562562 11.56257 l -0.471404,-0.2108 c -2.95469,-1.32128 -6.403901,-3.68369 -9.172301,-6.28224 -1.44632,-1.35758 -4.241305,-4.6402 -4.241305,-4.98128 0,-0.10183 1.519493,-0.16568 3.942657,-0.16568 h 3.942657 v -2.74272 -2.74272 h -8.582546 -8.582546 l 0.111178,0.3857 c 0.06115,0.21213 0.642764,1.47305 1.292482,2.80204 4.158807,8.50678 11.323574,15.36741 20.021162,19.17129 1.96202,0.85808 5.579686,2.07868 6.684542,2.25535 l 0.71228,0.1139 V 111.25392 93.061502 H 78.009765 59.34499 l -0.103361,-0.385695 c -0.141464,-0.527872 -0.112487,-4.770495 0.03513,-5.143501 0.11238,-0.283964 1.165217,-0.30325 18.715575,-0.34284 l 18.596496,-0.04195 0.04363,-18.213362 c 0.024,-10.017348 0.0208,-18.213361 -0.0071,-18.213361 -0.02791,0 -0.983325,0.265883 -2.123142,0.590852 C 83.43101,54.468112 74.290098,62.102449 69.245773,72.405407 68.599534,73.72534 68.02177,74.978848 67.96185,75.19098 l -0.108944,0.385694 h 8.582546 8.582546 V 72.748247 69.91982 H 81.07533 c -2.168462,0 -3.942657,-0.05022 -3.942657,-0.111598 0,-0.06138 0.570392,-0.813549 1.267538,-1.671486 2.429735,-2.990137 5.740379,-5.871693 9.019052,-7.850108 1.258947,-0.759675 3.327846,-1.85194 3.507821,-1.85194 0.04983,0 0.0906,5.206879 0.0906,11.570842 v 11.570841 h -15.5135 c -12.296638,0 -15.513453,-0.04443 -15.513279,-0.214275 5.15e-4,-0.444871 0.865861,-3.762503 1.464375,-5.613896 3.371478,-10.429019 10.618691,-19.53687 20.110028,-25.273044 4.460937,-2.696006 9.712537,-4.716965 14.937811,-5.748477 1.93494,-0.381973 5.949791,-0.855446 6.087351,-0.717883 0.0461,0.04607 0.0838,20.821281 0.0838,46.167139 v 46.083375 l -0.81425,-0.0177 c -0.44783,-0.01 -1.5644,-0.11995 -2.481269,-0.24497 z M 108.15967,90.170938 V 44.035419 l 0.81425,0.0033 c 2.46169,0.01012 7.28916,0.981208 11.0166,2.216093 7.28515,2.413538 13.34414,6.240793 18.73989,11.837348 5.52717,5.732874 9.47604,12.815806 11.44274,20.524412 0.36854,1.444513 0.67007,2.701394 0.67007,2.793069 0,0.106737 -5.57933,0.166684 -15.5135,0.166684 h -15.5135 V 70.009772 58.443174 l 0.47141,0.178825 c 1.02836,0.390105 4.19889,2.31021 5.88708,3.565279 2.33505,1.735973 4.47886,3.783787 6.19746,5.919962 l 1.3893,1.72687 -4.01563,0.08571 -4.01563,0.08571 -0.0282,2.785572 -0.0282,2.785573 h 8.64209 c 4.75315,0 8.64209,-0.03173 8.64209,-0.07052 0,-0.221483 -1.33777,-3.145202 -2.00703,-4.386396 -3.33206,-6.17958 -8.4541,-11.624361 -14.38874,-15.295379 -3.08566,-1.908714 -7.02907,-3.652841 -10.14327,-4.486253 -0.84764,-0.226844 -1.70279,-0.463741 -1.90033,-0.526439 l -0.35917,-0.113998 v 18.266265 18.266263 l 18.64191,-0.0015 18.64191,-0.0015 0.15152,1.427958 c 0.0833,0.785377 0.0957,2.098105 0.0275,2.917172 l -0.12405,1.489239 H 132.82886 114.15948 V 111.2321 c 0,17.87506 0.005,18.1705 0.33288,18.1705 0.56095,0 4.27385,-1.18302 6.26678,-1.99676 7.16844,-2.92693 13.70025,-8.27274 18.07902,-14.79636 1.33545,-1.98958 2.40489,-3.90624 3.33794,-5.98229 0.43005,-0.95688 0.78192,-1.77786 0.78192,-1.82441 0,-0.0465 -3.89855,-0.0846 -8.66345,-0.0846 h -8.66345 l 0.0221,2.74272 c 0.0196,2.42976 0.0546,2.74342 0.30673,2.74883 0.15652,0.003 1.96236,6.8e-4 4.01297,-0.006 2.05061,-0.007 3.7277,0.0485 3.72685,0.12246 -0.002,0.18017 -1.38688,1.94726 -2.64996,3.38145 -2.25885,2.56485 -6.4428,5.74635 -9.73359,7.40147 l -1.49993,0.7544 V 110.29092 98.718356 h 15.5135 c 8.53243,0 15.5134,0.05785 15.51328,0.128565 -6.8e-4,0.390035 -0.95047,3.991759 -1.48045,5.613999 -2.31923,7.0991 -5.93781,12.9864 -11.28376,18.35829 -3.61235,3.62988 -7.34886,6.3336 -11.89044,8.60388 -5.34986,2.67433 -11.0756,4.3242 -16.52875,4.76274 l -1.49993,0.12063 V 90.170936 Z"
         id="path83"
         inkscape:connector-curvature="0" />
      <path
         style="fill:#535353;stroke-width:0.17141987"
         d="M 2.2221837,178.51431 V 165.91495 H 12.935926 23.649669 v 2.22846 2.22845 H 15.507225 7.3647802 v 2.5713 2.5713 h 7.1996348 7.199635 v 2.05704 2.05704 H 14.564415 7.3647802 v 3.5141 3.51411 h 8.3138648 8.313864 v 2.22846 2.22846 H 13.107346 2.2221837 Z m 38.2266343,0 v -12.59936 h 2.527274 2.527274 l 4.586651,4.58429 4.586651,4.58429 4.586651,-4.58429 4.586651,-4.58429 h 2.527274 2.527274 v 12.59936 12.59936 h -2.569783 -2.569783 l -0.04437,-9.00548 -0.04437,-9.00548 -4.456917,4.28894 c -2.451304,2.35892 -4.509858,4.29006 -4.574564,4.29143 -0.06471,0.001 -2.098003,-1.90669 -4.51844,-4.24015 -2.420437,-2.33345 -4.469532,-4.26835 -4.553544,-4.29978 -0.08818,-0.033 -0.152753,3.75339 -0.152753,8.95669 v 9.01383 h -2.485588 -2.485588 z m 43.71207,-0.0132 v -12.61257 l 8.099589,0.0727 c 8.990393,0.0807 9.410103,0.12471 11.740013,1.23118 3.02733,1.43767 4.67376,4.22387 4.66444,7.89351 -0.0114,4.49115 -2.48112,7.63278 -6.9654,8.86039 -1.20857,0.33086 -1.888075,0.37387 -6.953464,0.44017 l -5.614001,0.0735 v 3.32686 3.32686 h -2.485589 -2.485588 z m 16.409522,0.97945 c 2.94959,-1.33358 3.74792,-5.38049 1.50404,-7.62437 -1.31128,-1.31128 -1.64018,-1.37321 -7.671224,-1.44441 l -5.271161,-0.0622 v 4.82007 4.82006 l 5.271161,-0.052 c 5.117854,-0.0505 5.297221,-0.0638 6.167184,-0.45711 z m 24.08731,-0.9234 0.044,-12.5565 2.52844,-0.0474 2.52845,-0.0474 v 12.60395 12.60394 h -2.57241 -2.57241 z m 21.55717,-0.0429 V 165.9149 l 6.98536,5.1e-4 c 4.0198,3.4e-4 7.64033,0.0804 8.52814,0.18876 5.88747,0.71849 8.89617,3.91838 8.60623,9.15314 -0.10419,1.88111 -0.54217,3.31471 -1.4139,4.62803 -0.6972,1.05037 -2.21101,2.29819 -3.47774,2.86668 -0.66633,0.29903 -0.71742,0.3624 -0.49905,0.619 0.1338,0.15723 1.37649,1.96364 2.76154,4.01425 l 2.51826,3.72835 -3.13344,-0.013 -3.13345,-0.013 -2.35514,-3.58683 -2.35515,-3.58684 h -3.94453 -3.94454 v 3.59982 3.59982 h -2.5713 -2.57129 z m 13.48895,0.94994 c 2.24489,-0.18575 3.50076,-0.67455 4.34,-1.6892 1.38517,-1.67469 1.32534,-4.49966 -0.12465,-5.88599 -1.43637,-1.37329 -2.16221,-1.51267 -7.89052,-1.51516 l -4.67119,-0.002 v 4.51406 c 0,2.48273 0.0514,4.56548 0.11428,4.62834 0.16894,0.16894 6.01511,0.13343 8.23208,-0.05 z m 26.28046,-0.94994 V 165.9149 h 10.71374 10.71374 v 2.22846 2.22845 h -8.14244 -8.14244 v 2.5713 2.5713 h 7.19963 7.19964 v 2.05704 2.05704 h -7.19964 -7.19963 v 3.5141 3.51411 h 8.31386 8.31386 v 2.22846 2.22846 H 196.86946 185.9843 Z M 101.40947,147.72902 C 80.983848,146.5611 62.215498,134.04887 53.220742,115.60322 47.184603,103.22483 45.719667,89.330182 49.045863,76.005225 52.468072,62.295628 61.047046,50.113052 72.84764,42.205502 80.588707,37.01823 88.907208,33.937719 98.303028,32.77885 c 2.962762,-0.365423 9.882302,-0.409402 12.770782,-0.08117 19.98484,2.270994 37.0154,14.239177 45.7707,32.16525 3.66866,7.511403 5.51724,15.057258 5.77424,23.570233 0.73619,24.385687 -13.79137,46.408557 -36.56333,55.427717 -5.643,2.235 -11.42667,3.49398 -17.81004,3.87687 -3.17977,0.19073 -3.3514,0.19051 -6.83591,-0.009 z m 8.72153,-6.06912 c 2.94309,-0.30596 4.87595,-0.64079 7.4907,-1.29761 19.26917,-4.8404 34.13261,-20.41549 38.10745,-39.93199 1.31557,-6.459477 1.3425,-13.603501 0.0762,-20.214038 -2.95326,-15.417054 -13.11586,-28.956973 -27.14286,-36.163202 -7.45711,-3.831012 -15.12668,-5.668733 -23.67514,-5.672846 -10.390092,-0.005 -19.889772,2.830944 -28.491634,8.50562 -11.364933,7.497485 -19.403879,19.313194 -22.161374,32.572975 -0.788008,3.78924 -1.065508,6.547286 -1.066802,10.602845 -0.0027,8.452508 1.733082,15.862136 5.450172,23.265466 6.823692,13.59075 19.20648,23.48571 33.92846,27.11188 2.674363,0.65872 4.969617,1.0279 8.485288,1.3648 1.66634,0.15969 6.88141,0.0763 8.99954,-0.1439 z m -10.713743,-5.67001 c -8.206032,-1.05256 -16.346625,-4.51979 -22.970264,-9.78346 -1.871068,-1.4869 -5.600023,-5.21552 -7.089743,-7.08911 -4.081588,-5.13331 -7.183312,-11.38331 -8.749739,-17.63078 -0.339255,-1.35307 -0.616827,-2.529442 -0.616827,-2.614156 0,-0.08995 6.453407,-0.154026 15.5135,-0.154026 h 15.513499 v 11.585682 11.58569 l -1.79576,-0.95044 c -4.477177,-2.36964 -8.264218,-5.53888 -11.39475,-9.53586 l -0.73843,-0.94281 4.007478,-0.0857 c 2.204112,-0.0471 3.988192,-0.14357 3.964621,-0.21428 -0.02357,-0.0707 -0.04285,-1.32281 -0.04285,-2.78244 v -2.65388 l -8.578864,-0.046 -8.578866,-0.046 0.09951,0.42855 c 0.202077,0.87026 2.486847,5.28388 3.638252,7.02822 4.731304,7.16776 11.485525,12.65948 19.262123,15.66163 1.975921,0.7628 4.942759,1.65142 5.514412,1.65165 0.283813,1.2e-4 0.299984,-0.97937 0.299984,-18.17038 V 93.061502 h -18.66089 -18.66089 l -0.108097,-0.899954 c -0.139665,-1.162762 -0.140644,-3.121979 -0.0021,-4.133007 l 0.109018,-0.795314 H 78.013071 96.674539 V 68.973745 50.714263 l -0.471404,0.112688 c -3.886271,0.92901 -7.912607,2.571392 -11.457568,4.673658 -4.986089,2.956894 -9.930894,7.704989 -13.142111,12.619302 -1.025177,1.568888 -3.727457,6.808257 -3.727457,7.227053 0,0.188939 1.521303,0.229711 8.570994,0.229711 h 8.570994 v -2.825268 -2.825269 l -3.955887,-0.04601 -3.955888,-0.04601 0.901743,-1.199939 c 1.360789,-1.810794 4.467459,-4.833914 6.561936,-6.385464 1.780913,-1.31927 4.97169,-3.257436 5.977593,-3.630956 l 0.472609,-0.175493 -0.04406,11.524202 -0.04406,11.524201 -15.332581,0.04378 c -8.432919,0.02408 -15.390706,-0.01448 -15.461749,-0.08571 -0.07104,-0.07122 0.01767,-0.785173 0.197141,-1.586561 3.521259,-15.723484 15.358932,-28.716783 30.682899,-33.678247 3.400386,-1.100949 8.711999,-2.148506 10.893947,-2.148506 h 0.59119 v 46.111945 46.11195 l -0.64283,-0.0193 c -0.35355,-0.0106 -1.45278,-0.12317 -2.442733,-0.25014 z M 108.15967,90.147364 V 44.035419 h 0.64995 c 0.35747,0 1.5724,0.120201 2.69986,0.267113 16.38146,2.134573 30.65463,13.200032 36.74461,28.486729 1.4066,3.530765 2.76838,8.558201 2.36029,8.713751 -0.10984,0.04187 -7.06507,0.05622 -15.45608,0.03189 l -15.25637,-0.04424 -0.0441,-11.530506 -0.0441,-11.530506 1.40474,0.706291 c 4.29927,2.161626 8.47343,5.561993 11.44926,9.326811 l 1.08397,1.371359 -4.05364,0.04596 -4.05364,0.04596 v 2.825325 2.825325 h 8.66826 8.66825 l -0.1127,-0.385694 c -0.28362,-0.970671 -2.56876,-5.361998 -3.63501,-6.98536 -3.22857,-4.915494 -7.75441,-9.371823 -12.51954,-12.327249 -3.52283,-2.184928 -8.10463,-4.100397 -12.08299,-5.051421 l -0.4714,-0.112688 v 18.259482 18.259482 h 18.66027 18.66027 l 0.0966,1.409446 c 0.0531,0.775195 0.0527,2.086557 -8.6e-4,2.914138 l -0.0975,1.504691 h -18.65939 -18.65939 v 18.243852 18.24386 l 1.49992,-0.40166 c 9.02817,-2.41758 16.72269,-7.68215 22.35643,-15.2962 1.23284,-1.6662 3.32769,-5.28221 4.15652,-7.17476 0.43212,-0.98669 0.78567,-1.85668 0.78567,-1.93332 0,-0.0766 -0.17356,-0.12009 -0.3857,-0.0966 -0.21213,0.0235 -4.10956,0.0492 -8.66095,0.0571 l -8.27525,0.0143 0.0471,2.78558 0.0471,2.78557 3.98939,0.0857 3.98938,0.0857 -1.087,1.37136 c -2.99517,3.77868 -7.23759,7.22829 -11.57722,9.41369 l -1.22854,0.61868 v -11.573 -11.572996 h 15.51677 15.51676 l -0.10391,0.471404 c -0.49026,2.224142 -1.26011,4.939822 -1.90365,6.715222 -5.92592,16.34835 -20.46577,27.94122 -37.76186,30.10817 -1.08065,0.13539 -2.17988,0.24616 -2.44274,0.24616 h -0.47792 z"
         id="path81"
         inkscape:connector-curvature="0" />
      <path
         style="fill:#2c2c2c;stroke-width:0.17141987"
         d="M 2.2221837,178.51431 V 165.91495 H 12.935926 23.649669 v 2.22679 2.2268 l -8.152858,0.0445 -8.1528578,0.0445 -6.2e-6,2.48559 -6.3e-6,2.48559 7.2100553,0.0447 7.210054,0.0447 v 2.05332 2.05332 l -7.218411,0.0447 -7.2184123,0.0447 0.00412,3.42839 0.00412,3.4284 8.3285243,0.0445 8.328523,0.0445 v 2.22683 2.22683 H 13.107346 2.2221837 Z m 38.2266343,0 v -12.59936 h 2.541481 2.54148 l 4.41957,4.54262 c 2.430763,2.49845 4.508192,4.54263 4.616512,4.54263 0.108318,0 2.240033,-2.04418 4.737144,-4.54263 l 4.540201,-4.54262 h 2.529655 2.529657 v 12.59936 12.59936 H 66.41893 63.933342 l -0.02229,-8.1853 c -0.01226,-4.50192 -0.02349,-8.55171 -0.02496,-8.99954 -0.0015,-0.44784 -0.03912,-0.81425 -0.08365,-0.81425 -0.155037,0 -1.350256,1.10906 -5.157323,4.78554 -2.107135,2.03486 -3.898567,3.69975 -3.980961,3.69975 -0.08239,0 -2.123202,-1.88991 -4.535128,-4.19979 -2.411925,-2.30988 -4.458156,-4.2255 -4.547178,-4.25693 -0.100203,-0.0354 -0.161858,3.3764 -0.161858,8.95669 v 9.01383 h -2.485588 -2.485588 z m 43.71207,0 v -12.59936 h 6.838633 c 3.761247,0 7.61989,0.0802 8.574761,0.17816 2.964598,0.30422 4.952228,1.07556 6.561458,2.5463 2.10877,1.9273 2.99387,5.2957 2.2787,8.67197 -0.71378,3.36969 -2.99752,5.57111 -6.88153,6.63346 -1.21117,0.33128 -1.891603,0.375 -6.872554,0.44158 l -5.528291,0.0739 v 3.32668 3.32668 h -2.485589 -2.485588 z m 16.131902,1.05351 c 1.39892,-0.57546 1.98981,-1.05845 2.51317,-2.05422 0.40617,-0.77282 0.46529,-1.08204 0.46667,-2.44113 10e-4,-1.43412 -0.0391,-1.622 -0.51674,-2.39458 -0.28507,-0.46109 -0.82695,-1.05527 -1.20416,-1.32038 -1.24009,-0.87157 -2.076359,-0.98138 -7.491344,-0.98361 l -4.928321,-0.002 v 4.79976 4.79976 l 5.099741,-0.004 c 4.928891,-0.004 5.131944,-0.0173 6.060984,-0.39948 z m 24.49461,-1.05351 v -12.59936 h 2.48559 2.48559 v 12.59936 12.59936 h -2.48559 -2.48559 z m 21.59891,-0.0161 v -12.61546 l 7.75675,0.0797 c 6.43553,0.0661 7.97573,0.12884 9.04239,0.36818 1.56933,0.35214 3.53012,1.24941 4.54168,2.07831 2.66356,2.18259 3.44647,7.0265 1.69993,10.51761 -0.71147,1.42216 -2.15814,2.8528 -3.6424,3.60205 l -1.06567,0.53795 2.17577,3.20932 c 1.19667,1.76513 2.43955,3.57573 2.76194,4.02357 l 0.58617,0.81424 h -3.106 -3.10599 l -2.35119,-3.59263 -2.35118,-3.59263 -3.98552,-0.007 -3.98551,-0.007 v 3.59982 3.59982 h -2.48559 -2.48558 V 178.4982 Z m 15.37737,0.72521 c 1.25478,-0.40684 2.28459,-1.23755 2.79313,-2.25314 0.35009,-0.69914 0.42855,-1.10691 0.42855,-2.22719 0,-1.18016 -0.0643,-1.48079 -0.4614,-2.15621 -0.25377,-0.43166 -0.77417,-0.99183 -1.15645,-1.24481 -1.28027,-0.84724 -2.20945,-0.97019 -7.332,-0.97019 h -4.67803 v 4.64436 4.64436 l 4.7569,-0.0739 c 3.8482,-0.0598 4.92738,-0.12919 5.6493,-0.36326 z m 24.22062,-0.70909 v -12.59936 h 10.71374 10.71374 v 2.22846 2.22845 h -8.23273 -8.23275 l 0.0474,2.52845 0.0474,2.52844 7.24249,0.0447 7.24249,0.0447 v 2.05518 2.05518 h -7.28535 -7.28534 v 3.5141 3.51411 h 8.39957 8.39957 v 2.22846 2.22846 H 196.86946 185.9843 Z M 99.417257,147.55855 c -17.186759,-1.64163 -32.821555,-11.04141 -42.45959,-25.52709 -5.191616,-7.80284 -8.272822,-16.372 -9.338047,-25.97011 -0.294194,-2.650792 -0.290445,-9.355145 0.0067,-11.999391 1.258219,-11.196376 5.501074,-21.460792 12.470898,-30.169897 1.760981,-2.200425 5.835205,-6.337841 8.011903,-8.13617 8.900702,-7.353515 19.583594,-11.833382 31.136715,-13.057168 3.041954,-0.322225 9.112614,-0.278371 12.170814,0.08792 13.41078,1.606252 24.95775,7.194072 34.37648,16.635493 8.51517,8.535679 13.86274,18.846317 16.00985,30.868586 0.60228,3.372358 0.7751,5.576086 0.77294,9.856642 -0.003,5.513614 -0.46167,9.324401 -1.72117,14.293095 -4.09127,16.13996 -15.15827,29.81596 -30.2693,37.40518 -5.95302,2.98978 -13.4073,5.10022 -20.19732,5.71821 -2.25216,0.20498 -8.80251,0.20181 -10.970875,-0.005 z m 10.383983,-5.82401 c 16.90768,-1.63998 31.67529,-11.17026 40.17354,-25.92602 3.46283,-6.01261 5.75997,-13.09541 6.54353,-20.17572 0.2805,-2.534607 0.28706,-8.459168 0.012,-10.885162 -1.99798,-17.625636 -12.2178,-32.578377 -27.80363,-40.679827 -10.31826,-5.363394 -22.5354,-7.068211 -34.026025,-4.748096 -12.028594,2.42874 -23.0255,9.25816 -30.641406,19.029263 -5.817701,7.464031 -9.52217,16.655469 -10.605033,26.31295 -0.313248,2.793682 -0.275518,8.650058 0.07406,11.495342 1.763419,14.35292 9.081636,26.97124 20.675535,35.64949 7.278746,5.44827 16.696892,9.06725 25.813369,9.91894 2.27274,0.21233 7.63615,0.21717 9.78401,0.009 z M 99.245838,135.91093 C 88.99787,134.5128 80.06246,130.09159 72.755406,122.80354 c -2.436399,-2.43006 -3.880571,-4.19656 -5.816441,-7.11461 -3.40191,-5.12792 -5.410805,-9.96598 -6.850902,-16.499168 l -0.10391,-0.471404 h 15.516765 15.516765 v 11.485132 c 0,9.18453 -0.04371,11.48513 -0.218219,11.48513 -0.284898,0 -3.617721,-1.85538 -4.913646,-2.73543 -2.661856,-1.80763 -5.639528,-4.57265 -7.668906,-7.12121 l -1.091989,-1.37136 3.989388,-0.0857 3.989386,-0.0857 v -2.82843 -2.82843 l -8.613849,-0.0444 c -7.252305,-0.0374 -8.613849,-0.007 -8.613849,0.19334 0,0.3432 0.417937,1.31331 1.463638,3.39739 2.052749,4.09111 4.165117,6.99074 7.608824,10.44457 5.132965,5.14804 10.798658,8.4754 17.759976,10.4301 1.019777,0.28635 1.879331,0.52063 1.910122,0.52063 0.03079,0 0.05598,-8.21529 0.05598,-18.25621 V 93.061502 H 78.015146 59.355752 l -0.09749,-1.504691 c -0.05362,-0.827581 -0.05401,-2.138943 -8.57e-4,-2.914138 l 0.09658,-1.409446 H 78.014266 96.674539 V 68.97701 c 0,-10.998573 -0.0627,-18.256216 -0.157711,-18.256216 -0.08674,0 -1.090594,0.268512 -2.230783,0.596694 -9.312233,2.68034 -17.307369,8.599531 -22.66422,16.779429 -1.301929,1.988045 -3.43804,6.069833 -3.667659,7.008354 l -0.115334,0.471404 h 8.675287 8.675288 V 72.75135 69.926025 l -4.053638,-0.04596 -4.053639,-0.04596 1.082376,-1.371359 c 2.943251,-3.729073 7.189728,-7.184363 11.481222,-9.342083 l 1.371955,-0.689806 v 11.48705 11.487044 H 75.492632 c -14.704924,0 -15.520413,-0.01584 -15.437267,-0.299985 0.04828,-0.164991 0.24785,-0.994235 0.443487,-1.842763 1.261678,-5.47223 3.987213,-11.417632 7.391085,-16.122699 6.775114,-9.365024 16.696199,-15.838874 27.927503,-18.223655 1.686542,-0.35811 5.3688,-0.88043 6.20685,-0.88043 h 0.47853 v 46.111945 46.111946 l -0.47141,-0.0163 c -0.25927,-0.009 -1.51278,-0.1584 -2.785572,-0.33205 z m 9.085252,-45.788182 v -46.13656 l 1.2428,0.114555 c 13.46594,1.241231 25.63006,8.226776 33.46729,19.219412 2.5081,3.5179 4.75024,7.912324 6.10533,11.965977 0.68283,2.042657 1.52465,5.254577 1.52507,5.818834 1.7e-4,0.283479 -0.84863,0.299985 -15.42757,0.299985 H 119.81622 V 69.904975 58.404998 l 1.80135,0.953398 c 4.26313,2.25635 7.98572,5.327601 10.93194,9.019188 l 1.16243,1.456526 -4.03372,0.04596 -4.03372,0.04596 v 2.825325 2.825325 h 8.6567 c 7.12133,0 8.65671,-0.04074 8.65671,-0.229711 0,-0.469438 -2.74912,-5.743632 -3.85639,-7.398473 -4.74995,-7.098984 -11.62108,-12.620258 -19.37101,-15.565512 -1.40463,-0.533812 -3.91499,-1.304164 -5.09974,-1.56495 l -0.4714,-0.103766 V 68.97375 87.233232 h 18.68476 18.68477 v 2.914137 2.914138 h -18.68477 -18.68476 v 18.259473 18.25949 l 0.4714,-0.11174 c 0.25927,-0.0615 1.3579,-0.37741 2.4414,-0.70212 9.29141,-2.78449 17.49938,-9.12902 22.72692,-17.56728 1.04779,-1.69133 2.89177,-5.38957 3.08285,-6.18289 l 0.11394,-0.473 -8.63284,0.0444 -8.63283,0.0444 -0.047,2.87129 -0.047,2.87128 h 4.04253 4.04253 l -0.81144,1.07137 c -1.26882,1.67528 -4.95644,5.27351 -6.75107,6.58744 -2.10408,1.54049 -4.93895,3.23252 -5.95739,3.55576 l -0.38515,0.12224 V 110.21504 98.718358 h 15.42779 15.42779 l -10e-4,0.385695 c -0.003,0.961447 -1.24558,5.288067 -2.27694,7.928167 -3.70015,9.47174 -10.51996,17.51287 -19.32197,22.78223 -5.57598,3.33809 -11.51279,5.35814 -18.16418,6.18055 -1.1757,0.14537 -2.23636,0.26431 -2.35703,0.26431 -0.1777,0 -0.21939,-8.76753 -0.21939,-46.136562 z"
         id="path79"
         inkscape:connector-curvature="0" />
      <path
         style="fill:#000000;stroke-width:0.17141987"
         d="m 2.2221837,178.6026 v -12.51106 l 10.5587933,-0.0454 c 5.807336,-0.025 10.631082,-6.9e-4 10.719435,0.0539 0.08991,0.0556 0.139267,0.99907 0.112095,2.14275 l -0.04855,2.0434 -8.185299,0.0445 -8.1852997,0.0445 v 2.56963 2.56964 h 7.2907847 7.290785 l -0.04829,1.97406 -0.0483,1.97406 -7.199635,0.0401 -7.1996347,0.0401 v 3.55453 3.55454 l 8.3138647,0.0453 8.313864,0.0453 0.04798,2.1856 0.04798,2.18561 H 13.112468 2.2221837 Z m 38.2266943,-0.0454 6.1e-5,-12.5565 2.511878,0.0275 2.511877,0.0275 4.589184,4.58682 4.589185,4.58683 4.548743,-4.61435 4.548742,-4.61435 h 2.49199 2.491993 l 3.43e-4,12.5565 3.43e-4,12.55651 H 66.333338 63.93346 v -9.08526 c 0,-4.99688 -0.05433,-9.08525 -0.120731,-9.08525 -0.0664,0 -1.128411,0.98352 -2.360022,2.18561 -1.23161,1.20208 -3.262538,3.18446 -4.513173,4.40529 l -2.273881,2.2197 -1.665778,-1.62901 c -0.916294,-0.89596 -2.977257,-2.89537 -4.580033,-4.44315 l -2.914138,-2.81414 -0.04436,9.12311 -0.04436,9.1231 h -2.484085 -2.484086 z m 43.753752,0.036 0.04397,-12.5205 7.730665,0.0101 c 7.924093,0.0104 9.123895,0.0923 10.970765,0.74874 2.18536,0.77682 3.69835,1.98991 4.56484,3.66003 0.80314,1.548 1.06865,2.7165 1.06341,4.68005 -0.0122,4.56832 -2.46113,7.54977 -7.18769,8.75063 -1.435745,0.36478 -1.91146,0.39296 -6.856797,0.40615 l -5.314017,0.0142 -0.04648,3.38554 -0.04648,3.38555 H 86.64174 84.158663 l 0.04397,-12.5205 z m 16.039,1.08547 c 2.07055,-0.83659 2.96028,-2.04521 3.08444,-4.1899 0.0927,-1.60087 -0.21357,-2.59207 -1.10605,-3.57994 -1.27062,-1.40643 -3.090369,-1.74561 -8.973878,-1.67263 l -4.028368,0.05 -0.04551,4.94176 -0.04551,4.94175 5.102394,-0.0616 c 4.739467,-0.0573 5.167125,-0.0878 6.012472,-0.42936 z m 24.54611,-1.12149 3.4e-4,-12.5565 2.48525,-0.002 2.48525,-0.002 v 12.55822 12.55822 h -2.48559 -2.48559 l 3.4e-4,-12.5565 z m 21.64031,0.0208 0.044,-12.53571 7.45676,0.0265 c 4.10122,0.0145 7.9196,0.10003 8.48528,0.18995 2.39825,0.38122 4.11312,1.12771 5.44575,2.37056 1.05835,0.98705 1.50366,1.67983 2.00164,3.11399 0.52314,1.50663 0.5433,4.37332 0.0419,5.95652 -0.66273,2.09261 -2.20407,3.87299 -4.15052,4.79422 -0.55462,0.2625 -0.97851,0.56687 -0.94198,0.67639 0.0365,0.10952 1.22855,1.8974 2.64892,3.97305 1.42037,2.07566 2.58249,3.8181 2.58249,3.8721 0,0.054 -1.33997,0.0982 -2.9777,0.0982 h -2.97771 l -2.37917,-3.59851 -2.37916,-3.59851 -3.98552,-0.001 -3.98551,-0.001 v 3.59982 3.59982 h -2.4867 -2.4867 z m 14.44771,0.86382 c 1.97594,-0.36527 3.55345,-1.56762 3.99637,-3.04595 0.56319,-1.87978 -0.0191,-4.01611 -1.35927,-4.98692 -1.32973,-0.96325 -2.01522,-1.07789 -6.97042,-1.16566 -2.47515,-0.0438 -4.67361,-0.0363 -4.88547,0.0168 l -0.3852,0.0966 0.0482,4.63594 0.0482,4.63595 h 4.24864 c 2.33674,0 4.70324,-0.084 5.25888,-0.18675 z m 25.1085,-0.88462 -5e-5,-12.5565 h 10.628 10.62802 l 7e-5,2.1856 6e-5,2.1856 h -8.14244 -8.14244 v 2.5713 2.5713 h 7.29077 7.2908 l -0.0483,1.97406 -0.0483,1.97406 -7.19964,0.0401 -7.19963,0.0401 v 3.56334 3.56335 l 8.35671,-0.009 8.35672,-0.009 v 2.23155 2.23156 H 196.86946 185.9843 l -4e-5,-12.55651 z M 99.160128,147.48344 C 88.035274,146.37727 77.215508,141.89042 68.544854,134.78758 59.520061,127.39464 52.833812,117.2498 49.610758,106.05946 47.180946,97.623239 46.725206,88.055738 48.34654,79.519332 50.306328,69.200936 54.748549,60.076505 61.704883,52.080965 c 6.60835,-7.59557 15.155426,-13.283734 25.00873,-16.643557 8.89399,-3.032712 19.270057,-3.759728 28.731407,-2.013113 17.63664,3.255817 32.84801,14.625549 40.87511,30.552072 4.28983,8.511425 6.24044,16.662377 6.24248,26.085287 0.002,10.899526 -2.74473,20.766806 -8.37782,30.092226 -3.57444,5.91738 -9.20033,12.09783 -14.7476,16.20131 -8.53233,6.31162 -18.44141,10.1347 -28.86232,11.13554 -3.15215,0.30274 -8.33004,0.29943 -11.414742,-0.007 z m 14.056432,-6.14486 c 9.43494,-1.63546 17.03747,-5.02764 24.25845,-10.82387 18.78136,-15.07569 24.6751,-41.203345 14.19908,-62.946221 -3.90152,-8.097566 -10.12802,-15.295502 -17.63078,-20.381464 -14.51922,-9.842267 -32.69661,-11.661398 -49.111033,-4.914863 -1.678826,0.690019 -5.276242,2.541894 -6.981359,3.593859 -8.366855,5.161898 -15.156651,12.60157 -19.449497,21.311081 -5.462286,11.082123 -6.797582,23.773762 -3.760339,35.741038 4.615517,18.18596 18.931496,32.62766 37.047991,37.37336 4.963634,1.30024 7.790586,1.61305 13.970717,1.54589 4.33772,-0.0471 5.17376,-0.10307 7.45677,-0.49881 z m -11.82797,-5.19184 c -4.550247,-0.54156 -7.167566,-1.09994 -10.738068,-2.29088 -10.183854,-3.39683 -18.745451,-10.20558 -24.628842,-19.58649 -0.89473,-1.42663 -2.527931,-4.67835 -3.333565,-6.63718 -1.092447,-2.65619 -2.626089,-7.876248 -2.495083,-8.492516 0.04825,-0.226986 1.863259,-0.257571 15.225442,-0.256559 8.343863,6.85e-4 15.267083,0.0024 15.384934,0.0039 0.169245,0.0022 0.214275,2.398385 0.214275,11.402175 0,6.26968 -0.04113,11.39942 -0.09141,11.39942 -0.198545,0 -1.969671,-0.94221 -3.654888,-1.94434 -3.20833,-1.90787 -7.0385,-5.31437 -9.343712,-8.31016 l -0.81504,-1.05921 h 4.038385 4.038387 v -2.91414 -2.91414 h -8.753966 -8.753966 l 0.113744,0.3857 c 0.06256,0.21213 0.680192,1.54278 1.372518,2.95699 4.629794,9.45728 12.837724,16.81065 22.6911,20.32863 1.023977,0.36559 4.437807,1.35598 4.674012,1.35598 0.07793,0 0.14169,-8.21529 0.14169,-18.25621 V 93.061502 H 77.989772 59.305005 V 90.147364 87.233227 H 77.989772 96.674539 V 68.97701 c 0,-15.459588 -0.03645,-18.256216 -0.237953,-18.256216 -0.130875,0 -0.92155,0.194809 -1.757054,0.432907 -6.605048,1.882278 -12.478512,5.25388 -17.432671,10.007047 -2.436275,2.337433 -5.490852,6.317929 -7.1109,9.266392 -1.139677,2.074194 -2.443616,5.034449 -2.286704,5.191362 0.07306,0.07306 3.985194,0.112818 8.693635,0.08836 l 8.560805,-0.04447 0.047,-2.871283 0.047,-2.871282 h -4.047342 -4.047341 l 0.527455,-0.71723 c 2.810126,-3.821177 7.152874,-7.489339 11.711434,-9.892226 l 1.666909,-0.878653 0.0064,11.486621 0.0064,11.486619 H 75.591896 c -14.580859,0 -15.429795,-0.01651 -15.429586,-0.299985 3.43e-4,-0.541561 0.820866,-3.701133 1.459112,-5.618977 2.83247,-8.511128 8.148182,-16.067333 15.242135,-21.666445 6.972315,-5.503103 15.226094,-8.775864 24.482173,-9.707591 l 1.15709,-0.116474 v 46.131915 c 0,43.830669 -0.015,46.130639 -0.29999,46.106239 -0.16499,-0.0141 -0.5314,-0.0532 -0.81424,-0.0869 z m 6.9425,-45.988873 c 0,-45.269027 0.006,-46.122448 0.32712,-46.122448 0.8406,0 4.7585,0.580152 6.52968,0.966896 8.88478,1.940035 16.52167,6.137116 23.01744,12.649934 2.28929,2.295302 3.66254,3.987103 5.61665,6.919574 3.21709,4.827796 5.96938,11.386447 6.75816,16.104593 l 0.1218,0.728535 H 135.25908 119.81622 V 69.934757 58.464562 l 1.49993,0.77516 c 1.89117,0.977361 4.37938,2.602459 6.04255,3.946521 2.02652,1.637694 6.17111,6.084332 6.17111,6.620846 0,0.062 -1.77606,0.112731 -3.9468,0.112731 h -3.9468 l 0.047,2.871282 0.047,2.871283 8.5608,0.04447 c 4.70845,0.02446 8.6176,-0.01411 8.687,-0.08571 0.0694,-0.0716 -0.27695,-1.017281 -0.76969,-2.101512 -4.87888,-10.735629 -14.27319,-18.912828 -25.47765,-22.176806 -0.80139,-0.233454 -1.70777,-0.475044 -2.01419,-0.536869 l -0.55711,-0.112408 v 18.269835 18.269838 h 18.68476 18.68477 v 2.914137 2.914138 h -18.68477 -18.68476 v 18.256222 c 0,10.04092 0.058,18.25621 0.12892,18.25621 0.0709,0 0.91432,-0.22448 1.87425,-0.49886 10.53936,-3.01245 19.14072,-9.78159 24.52414,-19.30013 0.94658,-1.67368 2.27123,-4.57749 2.27123,-4.97887 0,-0.21501 -1.19474,-0.24944 -8.65671,-0.24944 h -8.6567 v 2.91414 2.91414 h 3.94266 c 2.16846,0 3.94265,0.0502 3.94265,0.1116 0,0.0614 -0.58006,0.82545 -1.28903,1.69793 -2.8689,3.53059 -6.99932,6.86271 -11.01134,8.88313 -0.67828,0.34158 -1.27373,0.62105 -1.32323,0.62105 -0.0495,0 -0.09,-5.14902 -0.09,-11.44228 l -1e-5,-11.442276 15.38494,0.04084 c 12.56951,0.03337 15.39392,0.0822 15.43399,0.266848 0.0832,0.383449 -1.13102,4.833928 -1.87115,6.858288 -3.79252,10.37309 -11.26473,19.10881 -20.99156,24.54112 -4.98549,2.78433 -10.92797,4.7366 -16.44149,5.40147 -0.84853,0.10232 -1.87062,0.22691 -2.27131,0.27686 l -0.72854,0.0908 z"
         id="path77"
         inkscape:connector-curvature="0" />
    </g>
  </g>
</svg>
